<svg width="236" height="244" viewBox="0 0 236 244" fill="none" xmlns="http://www.w3.org/2000/svg">
<path fill-rule="evenodd" clip-rule="evenodd" d="M32.8252 47.1586L40.0796 38.3133L40.2364 39.0895C42.2831 49.2276 43.3139 59.5412 43.3139 69.8801V79.9668L45.259 73.5438C47.1821 67.193 47.9855 60.5612 47.6337 53.9399L46.5482 33.5071L64.3367 15.8845L67.352 13.2707C73.8529 7.63547 81.7312 3.78689 90.2016 2.10861C97.7126 0.620404 105.405 0.247716 113.027 1.00279L117.702 1.46593L123.086 2.35479C125.232 2.70919 126.42 5.02008 125.447 6.94824L122.734 12.3232C120.488 16.7723 119.319 21.6782 119.319 26.6525V31.4287C119.319 33.8731 119.622 36.3083 120.22 38.6797L120.88 41.2931C121.969 45.6078 124.385 49.4805 127.793 52.3749C131.717 55.7066 136.714 57.538 141.882 57.538H143.577L140.342 62.3442L139.871 63.0446C138.069 65.7217 137.108 68.8673 137.108 72.0848C137.108 76.2001 138.192 80.2442 140.253 83.8172L141.408 85.8198C142.847 88.3149 144.616 90.6088 146.667 92.6409L149.692 95.6377C153.098 99.0115 157.365 101.405 162.037 102.562C165.854 103.507 169.835 103.601 173.693 102.837L175.919 102.396L178.475 109.148C179.988 113.144 182.347 116.774 185.393 119.792C187.687 122.064 190.336 123.955 193.237 125.392L205.028 131.233L188.265 144.007C185.438 146.161 182.326 147.919 179.015 149.231L167.834 153.661H172.89C177.039 153.661 181.16 152.999 185.096 151.699C187.59 150.876 189.95 149.699 192.104 148.205L200.852 142.139C203.63 140.212 206.234 138.048 208.632 135.672L212.166 132.171C212.773 131.57 213.595 131.233 214.453 131.233H221.712C223.487 131.233 225.221 130.712 226.697 129.737C228.385 128.623 230.367 128.029 232.395 128.029H233.863C234.907 128.029 235.753 128.867 235.753 129.901V134.437V146.916C235.753 151.388 235.078 155.834 233.751 160.108L230.76 169.739C229.78 172.896 228.45 175.935 226.796 178.803L216.348 196.917L204.156 212.619C201.516 216.018 198.399 219.025 194.898 221.547L186.967 227.261C183.972 229.419 180.436 230.721 176.745 231.026L167.02 231.829C164.512 232.036 162.295 233.523 161.17 235.752C160.275 237.526 158.589 238.779 156.619 239.134L141.959 241.775L122.554 243.377H111.922C107.166 243.377 102.426 242.842 97.792 241.783C88.4585 239.649 79.4133 236.426 70.8457 232.182L67.2968 230.425C61.0196 227.315 54.9817 223.752 49.2322 219.765L41.6968 214.54L37.6375 210.92C29.6339 203.784 23.0535 195.223 18.238 185.682C14.4987 178.274 12.0584 170.289 11.0213 162.07L9.35401 148.855L11.8031 152.09C13.3952 154.193 15.3043 156.041 17.4634 157.569L25.5254 163.274L24.4566 160.627C23.0168 157.061 21.2072 153.653 19.0568 150.457L11.7175 143.186C7.00258 138.516 3.7076 132.626 2.20827 126.19L0.825975 120.255C0.0529327 116.937 0.0529319 113.487 0.825974 110.169L3.95173 96.7501C4.3179 95.1782 4.8542 93.65 5.55132 92.192L9.71001 83.4944C15.9188 70.5093 23.6794 58.31 32.8252 47.1586ZM78.1048 46.9129C76.6968 42.5919 77.6238 37.6765 80.9272 34.1127L82.8177 32.0733L83.3021 31.5934C88.24 26.7016 94.6271 23.5017 101.531 22.4609C106.407 21.9563 110.796 25.4088 111.404 30.2287L111.444 30.5482C111.764 33.0842 111.741 35.6512 111.377 38.1813L111.03 40.5824C110.555 43.88 109.388 47.0428 107.606 49.8676L105.829 52.6842C103.586 56.2399 99.6522 58.4001 95.4196 58.4003C93.5259 58.4004 91.658 57.9665 89.962 57.1327C90.0462 57.268 90.1292 57.4031 90.2109 57.5381C91.7614 60.0981 97.5802 61.8292 101.531 62.3442C102.777 62.5067 103.72 62.5666 104.588 62.6219C106.474 62.7419 108.012 62.8397 111.551 63.9153C108.726 64.4751 104.257 64.8953 99.9455 64.3332L99.799 64.3141C95.5568 63.7616 89.2806 62.9442 86.9767 59.1401L86.7527 58.7694C85.6545 56.9493 84.4227 54.9077 82.4827 53.1308C82.1871 52.9006 81.9015 52.6578 81.6265 52.4029C80.8681 51.8053 80.0116 51.2492 79.0317 50.7558L77.8567 50.1632C73.2614 47.8436 65.3127 43.8314 62.7196 43.1195C63.5426 43.3454 64.9119 43.6367 66.5586 43.9871C70.0135 44.7221 74.6897 45.7169 78.1048 46.9129ZM116.085 134.239V136.013C116.085 138.189 116.958 140.276 118.511 141.814C120.064 143.353 122.171 144.217 124.367 144.217H126.456C128.151 144.217 129.831 143.897 131.405 143.273L132.468 142.852C135.49 141.654 138.074 139.577 139.88 136.894L140.934 135.328C142.626 132.813 143.24 129.736 142.642 126.773C142.197 124.568 141.103 122.542 139.497 120.951L138.921 120.381C136.725 118.205 133.746 116.982 130.639 116.982C127.533 116.982 124.554 118.205 122.358 120.381L121.117 121.61C118.89 123.816 117.373 126.625 116.755 129.684L116.33 131.791C116.167 132.597 116.085 133.417 116.085 134.239ZM88.5938 220.238V220.922C88.5938 223.098 89.4664 225.185 91.0195 226.723C92.5727 228.262 94.6792 229.127 96.8757 229.127H98.9647C100.66 229.127 102.34 228.806 103.914 228.182L106.645 227.1C108.588 226.33 110.281 225.045 111.537 223.385C113.409 220.913 114.178 217.789 113.665 214.741L113.576 214.215C113.111 211.446 111.557 208.94 109.291 207.257C107.418 205.865 105.117 205.096 102.777 205.096C99.9082 205.096 97.1571 206.225 95.1286 208.234L93.6489 209.7C92.4429 210.895 91.4392 212.274 90.6765 213.786L89.644 215.831C88.9533 217.2 88.5938 218.709 88.5938 220.238ZM42.2002 145.939L43.0351 143.447C43.2206 142.893 43.446 142.353 43.7094 141.831C44.7518 139.766 46.3458 138.067 48.2773 136.889C38.4943 138.075 33.3057 142.43 31.7483 144.898C34.8925 139.915 43.5744 130.555 64.729 134.485C65.4157 134.655 66.3684 134.661 67.5839 134.459C70.1621 134.03 73.387 132.761 76.5279 131.219C79.6417 129.692 82.5508 127.958 84.4626 126.696C82.9367 129.649 80.9643 132.618 77.9634 134.091C75.7187 135.192 73.3078 136.224 71.0193 136.921C76.4123 141.864 83.1479 144.918 89.6457 146.711C96.9644 148.731 103.853 149.115 107.896 148.859C106.951 148.919 105.798 149.051 104.496 149.2C99.7476 149.745 93.0023 150.518 86.9766 148.855C82.266 147.555 78.0683 145.979 74.0663 143.394C74.2419 144.242 74.3174 145.11 74.2897 145.98L74.2706 146.58C74.1256 151.129 71.7702 155.329 67.9473 157.853L67.3033 158.279C65.3504 159.569 63.1307 160.409 60.8071 160.738L56.6428 161.327C54.2671 161.663 51.844 161.375 49.6159 160.492L48.8903 160.205C46.3347 159.192 44.2267 157.311 42.9443 154.898C41.4765 152.136 41.2078 148.901 42.2002 145.939ZM177.139 177.82L178.247 177.82C180.348 177.82 182.42 178.304 184.299 179.235L188.931 181.529C190.398 182.255 191.74 183.215 192.899 184.364C196.605 188.039 198.059 193.237 197.042 198.099C200.346 195.603 203.815 193.433 208.262 192.111C204.497 195.012 201.597 197.949 198.82 200.762C193.88 205.766 189.327 210.377 180.977 213.698C179.686 214.24 178.36 214.704 177.006 215.087L176.91 215.114C176.227 215.321 175.522 215.521 174.792 215.714L172.685 216.31L172.358 216.391C171.759 216.539 171.16 216.637 170.567 216.686C167.58 217.282 164.241 217.77 160.476 218.135C146.376 225.173 133.211 232.197 124.96 236.765C127.86 235.16 131.099 232.785 134.721 230.129C139.952 226.293 145.983 221.87 152.952 218.33C151.194 218.468 149.046 218.422 146.912 218.376L146.907 218.375C145.846 218.353 144.788 218.33 143.783 218.33C142.165 218.33 134.381 218.567 131.75 219.427C134.51 218.525 139.188 217.238 144.329 216.279C149.28 215.356 154.774 214.715 159.429 215.069C160.75 214.974 162.018 214.85 163.237 214.701C160.683 212.914 158.882 210.071 158.572 206.69C158.281 203.519 158.584 200.321 159.468 197.259L159.578 196.875C160.758 192.784 162.747 188.965 165.429 185.641L168.368 181.998C170.499 179.357 173.727 177.82 177.139 177.82ZM37.0356 94.4493L36.7393 95.3339C36.3689 96.4393 36.4692 97.6464 37.0169 98.677C37.4955 99.5773 38.2821 100.279 39.2357 100.657L39.5065 100.765C40.338 101.094 41.2422 101.201 42.1287 101.076L43.6826 100.856C44.5497 100.733 45.378 100.42 46.1068 99.9385L46.3471 99.7798C47.7736 98.8376 48.6526 97.2706 48.7067 95.5729L48.7112 95.4312C48.7306 94.8218 48.6264 94.2147 48.4046 93.6459C47.7944 92.0806 46.3651 90.9743 44.6844 90.7663L43.814 90.6586C43.0036 90.5583 42.1812 90.6211 41.396 90.8433L40.5934 91.0704C39.1715 91.4728 37.9853 92.448 37.324 93.7583C37.2113 93.9815 37.115 94.2124 37.0356 94.4493ZM120.931 73.925C120.74 76.5416 116.72 82.8349 112.732 85.1066C108.461 87.5401 100.395 87.3051 86.9767 84.7731C101.531 89.5792 109.102 90.871 114.344 87.8842C119.67 84.85 120.937 81.5689 120.937 76.7628L120.931 73.925ZM120.931 73.925C120.94 73.7933 120.94 73.6708 120.93 73.5586L120.931 73.925ZM124.342 179.783C126.408 178.458 128.174 176.717 129.688 174.795C116.237 184.486 104.935 178.799 101.057 174.958C102.441 177.828 104.136 180.66 106.757 182.498C110.359 185.024 115.078 185.727 124.342 179.783ZM31.4943 184.281C31.323 186.775 31.2088 188.438 31.4338 190.231C31.4868 190.654 31.5412 191.087 31.606 191.537C31.8192 193.015 32.1558 194.62 33.0339 196.302C33.914 197.987 35.2873 199.656 37.4524 201.372C41.2011 204.343 45.6265 205.418 49.6123 206.386L49.616 206.387L49.6194 206.388C50.2933 206.551 50.9546 206.712 51.5979 206.878C52.5977 207.137 53.5932 207.346 54.5917 207.556C58.1416 208.303 61.7299 209.057 65.6824 212.049C62.1053 206.734 56.6741 205.088 51.9299 203.862C51.204 203.674 50.4884 203.499 49.7838 203.326C45.7824 202.343 42.6193 201.364 39.4728 198.87C37.595 197.382 36.5427 196.048 35.9067 194.829C35.2688 193.608 34.9989 192.408 34.8078 191.083C34.7546 190.715 34.7084 190.333 34.6607 189.938C34.3684 187.521 33.611 185.703 31.6706 181.537C31.6124 182.562 31.5503 183.466 31.4943 184.281ZM81.5188 174.035C80.9284 173.576 80.3368 173.117 79.7421 172.665C76.9418 170.538 73.6581 168.853 70.8053 169.535C73.8452 168.808 76.6721 168.669 79.2591 169.38C83.519 170.55 85.9407 174.729 87.9897 178.609C85.6993 177.283 83.6085 175.658 81.5188 174.035ZM104.179 108.623C101.716 107.639 99.2518 106.654 96.6794 106.01C99.7362 109.174 103.235 112.521 107.655 112.473C110.34 112.443 113.016 111.531 115.732 109.996C113.183 111.437 109.556 110.722 106.27 109.45C105.572 109.18 104.877 108.902 104.182 108.624L104.179 108.623ZM77.2738 73.5586C76.2462 75.5946 74.6196 77.0645 72.9986 78.5292C71.2874 80.0755 69.5825 81.6161 68.5951 83.811C68.2556 84.5658 67.8626 85.5129 67.3943 86.7025C67.3943 85.0707 67.1338 83.5057 66.8893 82.037C66.8054 81.5329 66.7232 81.0393 66.6542 80.5591C65.9092 75.3698 71.9829 73.5586 77.2738 73.5586ZM72.8461 226.03C70.81 225.787 68.9868 225.57 67.571 223.825C72.0723 221.07 77.9133 219.921 78.9318 225.064C79.2051 226.444 79.596 227.951 80.5081 229.414C78.0127 227.551 76.5963 226.745 75.653 226.5C74.687 226.249 73.7457 226.137 72.8461 226.03ZM128.378 14.921L128.382 14.9059C128.602 14.1461 128.818 13.4031 129.022 12.6805C126.253 33.5072 138.186 48.4598 145.194 51.1299C119.201 46.5857 124.53 28.1963 128.378 14.921ZM148.428 57.5381C144.115 63.4123 140.346 74.7651 148.428 84.7731C154.791 92.6537 159.59 94.3319 178.222 92.8587C178.59 92.8547 178.902 92.8286 179.153 92.7834C178.839 92.8093 178.528 92.8344 178.222 92.8587C174.241 92.9023 163.778 90.3679 154.896 81.569C144.822 71.5885 146.54 62.3443 148.428 57.5381ZM226.05 123.223C208.262 124.825 179.153 123.223 184.004 94.3855C184.702 95.5364 185.365 96.8857 186.091 98.3623C190.42 107.162 196.97 120.479 226.05 123.223Z" fill="#B55119"/>
</svg>
